<?xml version="1.0" encoding="utf-8"?>
<!-- Generator: Adobe Illustrator 21.1.0, SVG Export Plug-In . SVG Version: 6.00 Build 0)  -->
<svg version="1.1" id="圖層_1" xmlns="http://www.w3.org/2000/svg" xmlns:xlink="http://www.w3.org/1999/xlink" x="0px" y="0px"
	 viewBox="0 0 50 50" style="enable-background:new 0 0 50 50;" xml:space="preserve">
<style type="text/css">
	.st0{fill:#00B900;}
	.st1{fill:#FFFFFF;}
</style>
<title>img-line-online</title>
<g>
	<path class="st0" d="M39.2,50H10.8C4.9,50,0,45.1,0,39.2V10.8C0,4.9,4.9,0,10.8,0h28.3C45.1,0,50,4.9,50,10.8v28.3
		C50,45.1,45.1,50,39.2,50z"/>
	<path class="st1" d="M25,8.8C16,8.8,8.8,16,8.8,25S16,41.3,25,41.3c1.7,0,3.4-0.3,5-0.8l1-0.3c0.3-0.1,0.5-0.5,0.4-0.8l-0.9-2.9
		c-0.1-0.3-0.5-0.5-0.8-0.4l-1,0.3c-1.2,0.4-2.4,0.6-3.7,0.6c-6.6,0-11.9-5.4-11.9-11.9S18.4,13.1,25,13.1c6.6,0,11.9,5.4,11.9,11.9
		c0,1.3-0.3,2.8-0.8,4.2c-0.4,1-1.2,1.9-1.9,1.9c-0.9,0-1.7-0.7-1.7-1.7V17.9c0-0.4-0.3-0.7-0.7-0.7h-3c-0.3,0-0.6,0.3-0.6,0.6
		l0,0.3L28.1,18c-1.1-0.6-2.5-1-3.8-1c-4.4,0-7.9,3.6-7.9,7.9s3.6,7.9,7.9,7.9c1.5,0,3-0.4,4.2-1.2l0.2-0.1l0.1,0.2
		c0.9,2.2,3.1,3.6,5.5,3.6c2.6,0,5-1.9,6-4.8c0.7-1.9,1-3.8,1-5.6C41.2,16,34,8.8,25,8.8z M28.3,25c0,2.2-1.8,3.9-3.9,3.9
		s-3.9-1.8-3.9-3.9s1.8-3.9,3.9-3.9S28.3,22.8,28.3,25z"/>
</g>
</svg>
