<svg xmlns="http://www.w3.org/2000/svg" viewBox="0 0 58.01 185.92"><title>btn-gotop</title><g id="圖層_6" data-name="圖層 6"><path d="M15.26,128q0-6.73,3.65-10.75a12.68,12.68,0,0,1,9.87-4,11.89,11.89,0,0,1,9.3,3.93,14.61,14.61,0,0,1,3.53,10.14q0,6.69-3.56,10.75a12.28,12.28,0,0,1-9.73,4.06,12.18,12.18,0,0,1-9.48-3.95A14.54,14.54,0,0,1,15.26,128Zm3.23-.29A12.79,12.79,0,0,0,21.16,136a8.72,8.72,0,0,0,7.14,3.29,9.26,9.26,0,0,0,7.44-3.11q2.66-3.11,2.66-8.45,0-5.52-2.57-8.62a8.92,8.92,0,0,0-7.28-3.1,9,9,0,0,0-7.32,3.31A12.67,12.67,0,0,0,18.49,127.67Z" style="fill:#f79fc8"/><path d="M24.1,175.31v10.6H21V158h7.54a10,10,0,0,1,6.85,2.18,7.75,7.75,0,0,1,2.47,6.13,8.37,8.37,0,0,1-2.9,6.64,10,10,0,0,1-7.16,2.38Zm0-14.5v11.63h3.5a7.84,7.84,0,0,0,5.26-1.56,5.55,5.55,0,0,0,1.81-4.45q0-5.63-6.64-5.63Z" style="fill:#f79fc8"/><path d="M38.6,72.15H30.54V97.27H27.45V72.15h-8V69.33H38.6Z" style="fill:#f79fc8"/><path d="M29,58A29,29,0,1,1,58,29,29,29,0,0,1,29,58ZM29,3A26,26,0,1,0,55,29,26,26,0,0,0,29,3Z" style="fill:#f79fc8"/><path d="M40.3,36.91l-10-17.32-.09-.13,0,0a1.48,1.48,0,0,0-2.48.16h0v0l0,.07L17.7,36.92a1.5,1.5,0,1,0,2.6,1.5L29,23.34l8.7,15.07a1.5,1.5,0,0,0,2.6-1.5Z" style="fill:#f79fc8"/></g></svg>