<svg xmlns="http://www.w3.org/2000/svg" viewBox="0 0 45.69 16"><title>btn-h-line</title><g id="圖層_6" data-name="圖層 6"><path d="M32.66.66V15.32A.65.65,0,0,1,32,16H29.65a.68.68,0,0,1-.54-.27L22.39,6.64v8.7a.65.65,0,0,1-.66.66H19.38a.65.65,0,0,1-.66-.66V.68A.65.65,0,0,1,19.38,0h2.33a.62.62,0,0,1,.54.29L29,9.38V.68A.65.65,0,0,1,29.63,0H32a.65.65,0,0,1,.68.64ZM15.75,0H13.4a.65.65,0,0,0-.66.66V15.32a.65.65,0,0,0,.66.66h2.35a.65.65,0,0,0,.66-.66V.66A.66.66,0,0,0,15.75,0ZM10.08,12.29H3.67V.66A.65.65,0,0,0,3,0H.66A.65.65,0,0,0,0,.66V15.32a.6.6,0,0,0,.19.45A.69.69,0,0,0,.64,16h9.42a.65.65,0,0,0,.66-.66V12.95a.66.66,0,0,0-.64-.66ZM45,0H35.61a.67.67,0,0,0-.66.66V15.32a.67.67,0,0,0,.66.66H45a.65.65,0,0,0,.66-.66V13a.65.65,0,0,0-.66-.66H38.62V9.83H45a.65.65,0,0,0,.66-.66V6.8A.65.65,0,0,0,45,6.14H38.62V3.67H45A.65.65,0,0,0,45.69,3V.66A.69.69,0,0,0,45,0Z" style="fill:#fff"/></g></svg>