<svg xmlns="http://www.w3.org/2000/svg" viewBox="0 0 40.64 34.65"><title>icon-cart</title><g id="圖層_6" data-name="圖層 6"><path d="M35.85,22.93A1.18,1.18,0,0,0,37,22L40.61,5.73A1.18,1.18,0,0,0,39.46,4.3h-31a1.13,1.13,0,0,0-.24,0L7.29.87A1.18,1.18,0,0,0,6.15,0h-5a1.18,1.18,0,1,0,0,2.36H5.25l6.4,24a1.18,1.18,0,0,0,1.14.87H37.33a1.18,1.18,0,0,0,0-2.35H13.69l-.52-1.94Zm-8.46-8.14-.28,5.78H21a1.12,1.12,0,0,0,0-.31l-.79-5.48Zm-7.53-2.35L19,6.65h8.76l-.28,5.78Zm15,8.14H29.46l.28-5.78h6.44Zm1.81-8.14H29.86l.28-5.78H38Zm-20-5.78a1.07,1.07,0,0,0,0,.12l.81,5.66H11.12a1.15,1.15,0,0,0-.68.24l-1.61-6ZM11,14.76l.13,0h6.7l.83,5.78h-6.1Z" style="fill:#fff"/><circle cx="14.56" cy="31.61" r="3.03" style="fill:#fff"/><circle cx="34.3" cy="31.61" r="3.03" style="fill:#fff"/></g></svg>