<svg xmlns="http://www.w3.org/2000/svg" viewBox="0 0 34.9 34.9"><title>icon-price</title><g id="圖層_6" data-name="圖層 6"><path d="M17.45,0A17.45,17.45,0,1,0,34.9,17.45,17.45,17.45,0,0,0,17.45,0Zm4.66,26.19a6.91,6.91,0,0,1-4,1.85v3.31H16.6V28.16a9.52,9.52,0,0,1-5.25-1.3V24.31a7,7,0,0,0,2.43,1.31,8.26,8.26,0,0,0,2.82.51v-8q-3.44-1.66-4.36-3A5.46,5.46,0,0,1,11.32,12,5.52,5.52,0,0,1,12.8,8.25a5.89,5.89,0,0,1,3.8-2V3.55h1.53V6.23a8.23,8.23,0,0,1,4.09.83v2.5a6.62,6.62,0,0,0-4.09-1.3v8.19a15.78,15.78,0,0,1,4.14,2.76,4.58,4.58,0,0,1,1.31,3.33A5,5,0,0,1,22.11,26.19Z" style="fill:#fff"/><path d="M18.13,19v7q3-.66,3-3.23Q21.12,20.62,18.13,19Z" style="fill:#fff"/><path d="M14.51,9.55a3.32,3.32,0,0,0-.73,2.14,3.86,3.86,0,0,0,.49,2,6.89,6.89,0,0,0,2.33,1.89V8.35A3.55,3.55,0,0,0,14.51,9.55Z" style="fill:#fff"/></g></svg>