<svg xmlns="http://www.w3.org/2000/svg" xmlns:xlink="http://www.w3.org/1999/xlink" viewBox="0 0 213.2 97.73"><defs><clipPath id="clip-path"><path d="M46.37,15a2.2,2.2,0,0,0-.68.43,29.54,29.54,0,0,0-3,2.46A35.51,35.51,0,0,0,40,20.7q-1.44,1.76-2.72,3.65t-2.48,3.93q-1.52,2.66-2.92,5.45T29,39.33q-1.28,2.62-2.64,5.16t-2.8,4.95a24.91,24.91,0,0,1-3.92,5.17,21.06,21.06,0,0,1-4.72,3.62,15.27,15.27,0,0,1-2.8,1.26,11.6,11.6,0,0,1-2.76.58A11.83,11.83,0,0,1,6.78,60a6.18,6.18,0,0,1-2.32-.82A8.47,8.47,0,0,1,2.3,57.41a9.16,9.16,0,0,1-1.6-2.66c-.11-.19-.21-.29-.32-.27a.33.33,0,0,0-.24.16A1.07,1.07,0,0,0,0,55a1,1,0,0,0,0,.47,6.72,6.72,0,0,0,1.8,3.3,8.51,8.51,0,0,0,3.16,2,11.81,11.81,0,0,0,4.65.67,19.18,19.18,0,0,0,5.36-1,27.42,27.42,0,0,0,2.88-1.32,22.31,22.31,0,0,0,2.84-1.79A28,28,0,0,0,23.47,55,24.59,24.59,0,0,0,26,52.17q1.2-1.56,2.32-3.31t2.16-3.64q1-1.89,2-3.89l1.92-4q1.52-3.37,3-6.67t3-6.19a45.77,45.77,0,0,1,3-5.06,23.08,23.08,0,0,1,3.24-3.82c.32-.21.48-.39.48-.52s-.08-.2-.24-.2a1.8,1.8,0,0,0-.6.14M59,5.31A37,37,0,0,1,53.62,7.8a29.75,29.75,0,0,1-4.68,1.3,33.6,33.6,0,0,1-4.32.52q-2.12.11-4.29.15-2.32,0-4.84,0a53.75,53.75,0,0,0-5.49.35,12,12,0,0,0-3.44.61,25.16,25.16,0,0,0-3.8,1.59,25.7,25.7,0,0,0-3.84,2.44,28.22,28.22,0,0,0-3.48,3.14,25.91,25.91,0,0,0-2.56,3.54,15.42,15.42,0,0,0-2.2,8.29,12.46,12.46,0,0,0,1,4.56.76.76,0,0,0,.72.12c.21-.09.37-.41.48-1a18.34,18.34,0,0,1-.6-3.66A13.38,13.38,0,0,1,12.54,26a15,15,0,0,1,1.28-3.58,13.07,13.07,0,0,1,2.24-3.17,16.78,16.78,0,0,1,4.12-3.16,18.65,18.65,0,0,1,5.64-2,15.58,15.58,0,0,1,2.68-.52q1.4-.15,2.92-.25t3.16-.12l3.24-.06q2.56-.1,5.17-.33a35.77,35.77,0,0,0,5-.79,6.16,6.16,0,0,0,1.48-.48q.84-.38,1.72-.84l1.84-1Q54,9.26,55,8.7l2.2-1.13A8.22,8.22,0,0,1,59,6.87a1.55,1.55,0,0,1,1.2.12q.44.29.28,1.27a4.73,4.73,0,0,1-.08,1.46,15.48,15.48,0,0,1-.48,1.8,21.88,21.88,0,0,1-.8,2.06Q58.67,14.66,58,15.8q-.8,1.26-1.72,2.45a22.39,22.39,0,0,1-2,2.3,15.33,15.33,0,0,1-2.44,2,15,15,0,0,1-2.76,1.42,3.34,3.34,0,0,0-1.72,1.68,1.51,1.51,0,0,0,.36,1.58,14,14,0,0,1,2.48,2.27A15.22,15.22,0,0,1,51.94,32a11.23,11.23,0,0,1,1.2,3.45,13.84,13.84,0,0,1,.16,3.61,17.41,17.41,0,0,1-1.24,5,18.44,18.44,0,0,1-2.6,4.47,19.49,19.49,0,0,1-5,4.59,14,14,0,0,1-2.84,1.39,10.43,10.43,0,0,1-2.92.61,8.91,8.91,0,0,1-4.2-1,10.17,10.17,0,0,1-3.72-3.47.74.74,0,0,0-.28-.11.68.68,0,0,0-.4,0,.35.35,0,0,0-.24.24c0,.11,0,.29.2.53a10.93,10.93,0,0,0,2.56,2.94,11.27,11.27,0,0,0,3,1.71,10,10,0,0,0,3.24.63,18.38,18.38,0,0,0,3.44-.25,16.19,16.19,0,0,0,3-1,20.06,20.06,0,0,0,2.88-1.56,25.83,25.83,0,0,0,2.68-2,18,18,0,0,0,2.32-2.39,21.65,21.65,0,0,0,2.84-4.23,14.45,14.45,0,0,0,1.48-4.65,12,12,0,0,0-.24-5,11.21,11.21,0,0,0-2.56-4.66,17.76,17.76,0,0,0-2.2-2,18.92,18.92,0,0,0-2.76-1.75,3.55,3.55,0,0,1-1-1.15.65.65,0,0,1,0-.64.76.76,0,0,1,.52-.29,2.1,2.1,0,0,0,.6-.18q1-.32,2-.73t2.08-.91q1-.49,2.08-1.06c.69-.38,1.36-.79,2-1.21a20.52,20.52,0,0,0,1.72-1.37,15,15,0,0,0,1.52-1.53,8.66,8.66,0,0,0,1.8-3.3q.24-1.4.4-2.79a14.36,14.36,0,0,0,.08-2.58,9.54,9.54,0,0,0-.32-1.87,3.11,3.11,0,0,0-.8-1.39A3.45,3.45,0,0,0,61,5.38,3.61,3.61,0,0,0,60,5.23a6.1,6.1,0,0,0-1,.08" style="fill:#ff76bb"/></clipPath><clipPath id="clip-path-2"><path d="M67.79,50.14a2.83,2.83,0,0,1-1.36-1,4.29,4.29,0,0,1-.68-1.61,6.62,6.62,0,0,1-.08-2.07,17,17,0,0,1,.44-2.4,16,16,0,0,1,1-2.88q.64-1.47,1.36-2.87a19.67,19.67,0,0,1,2.12-3.07,19,19,0,0,1,2.6-2.59,15.09,15.09,0,0,1,2-1.41,10.44,10.44,0,0,1,2-.93A5.28,5.28,0,0,1,79,29a3.66,3.66,0,0,1,1.56.38A3.6,3.6,0,0,1,82.21,32,9.73,9.73,0,0,1,82,36a15.94,15.94,0,0,1-1,3,24.74,24.74,0,0,1-1.76,3.22A22.34,22.34,0,0,1,76.52,46a19.45,19.45,0,0,1-3,2.77,9.12,9.12,0,0,1-2.92,1.44,4.93,4.93,0,0,1-1.31.18,4.47,4.47,0,0,1-1.54-.27M78.2,27.6A13.7,13.7,0,0,0,74,28.69a18.07,18.07,0,0,0-1.76.89q-.88.5-1.76,1.05c-.59.42-1.18.86-1.76,1.33s-1.17,1-1.76,1.49a12.06,12.06,0,0,0-1.88,2.27,19.35,19.35,0,0,0-1.48,2.77,26.88,26.88,0,0,0-.92,3.07,13.55,13.55,0,0,0-.36,3.06,8.91,8.91,0,0,0,.2,1.89,7.5,7.5,0,0,0,.6,1.74,5.27,5.27,0,0,0,2.33,2.5,7.58,7.58,0,0,0,2.2.76,8.78,8.78,0,0,0,2.44.08,14.36,14.36,0,0,0,2.56-.51,14.68,14.68,0,0,0,2.48-1,18.34,18.34,0,0,0,2.72-1.49,22.35,22.35,0,0,0,2.4-1.84,25.92,25.92,0,0,0,2-2,11.79,11.79,0,0,0,1.48-2.13,17.75,17.75,0,0,0,1.08-2.3,16.25,16.25,0,0,0,.68-2.23,15.15,15.15,0,0,0,.32-2.1,11,11,0,0,0,0-1.88,8.3,8.3,0,0,0-.4-2.06,9.06,9.06,0,0,0-.8-1.75,7.2,7.2,0,0,0-1.24-1.35,5.43,5.43,0,0,0-1.56-.9,7.63,7.63,0,0,0-2.76-.48c-.28,0-.56,0-.85,0" style="fill:#ff76bb"/></clipPath><clipPath id="clip-path-3"><path d="M109.27,22.1a10.42,10.42,0,0,0-2.8.83q-1.68.84-3.32,1.87A16.32,16.32,0,0,0,100,27.44l.48-1.36c.16-.46.32-.88.48-1.28a1.31,1.31,0,0,0,0-.31.58.58,0,0,0-.2-.29.62.62,0,0,0-.4-.13,1.2,1.2,0,0,0-.64.3q-1.12.59-2.24,1.21t-2.24,1.21q-1.12.67-2.28,1.3l-2.2,1.2a1.47,1.47,0,0,0-.4.51.33.33,0,0,0,0,.32.32.32,0,0,0,.24.12.48.48,0,0,0,.32-.09L93,29.32l2.12-.83q-1.12,2.35-2.16,4.6-.56,1.3-1.16,2.59t-1.24,2.61Q89.81,40,89,41.71t-1.72,3.37a8.28,8.28,0,0,1-.52,1,3.47,3.47,0,0,1-.68.79,3.88,3.88,0,0,1-1,.61,10.28,10.28,0,0,1-1.56.5,1.42,1.42,0,0,0-.68.91.38.38,0,0,0,.12.38c.11.09.35.1.72,0l1.4-.39,1.32-.38a8.76,8.76,0,0,1,1.4-.27,9,9,0,0,1,1.72,0,2.7,2.7,0,0,0,.56,0,4.7,4.7,0,0,0,.64-.07c.43-.18.88-.35,1.36-.5a9.83,9.83,0,0,0,1.4-.59,6.56,6.56,0,0,0,1.16-.75,2.44,2.44,0,0,0,.72-1,1.09,1.09,0,0,0,.08-.45.4.4,0,0,0-.16-.37q-.16-.09-.52.09a4.51,4.51,0,0,0-1.08,1,2.09,2.09,0,0,1-.8.57.87.87,0,0,1-.8,0c-.21-.12-.32-.4-.32-.83a5.48,5.48,0,0,1,.48-1.84q.88-1.83,1.72-3.61c.56-1.18,1.16-2.34,1.8-3.46s1.29-2.26,2-3.41a37.36,37.36,0,0,1,2.2-3.37,16.67,16.67,0,0,1,2.72-2.93,10.51,10.51,0,0,1,1.88-1.27,6.43,6.43,0,0,1,1.88-.63,4.53,4.53,0,0,1,1.16-.19,3,3,0,0,1,1.12.17,2,2,0,0,1,.88.66,3,3,0,0,1,.52,1.24,7.21,7.21,0,0,1,.08,1.91,13.17,13.17,0,0,1-.48,2.56q-.32.86-.64,1.67c-.22.54-.45,1.1-.72,1.68a17.31,17.31,0,0,1-1,2c-.38.68-.75,1.37-1.12,2.07a18.74,18.74,0,0,1-1.16,1.83q-.68,1-1.32,1.78t-1.12,1.43q-.56.69-1,1.41c-.21.2-.31.36-.28.49a.76.76,0,0,0,.2.37.68.68,0,0,0,.44.21.47.47,0,0,0,.44-.15,9.89,9.89,0,0,1,1.36-.43,6.65,6.65,0,0,1,1.24-.17l1.2,0,1.24,0,1-.32a8,8,0,0,0,1.08-.42,4.83,4.83,0,0,0,1-.6,2.39,2.39,0,0,0,.68-.87,1.12,1.12,0,0,1,.12-.42.83.83,0,0,0,.08-.49.4.4,0,0,0-.24-.32,1.05,1.05,0,0,0-.68.07l-.72.4-.72.36a3.32,3.32,0,0,1-.84.26,9.22,9.22,0,0,1-1.08.1.79.79,0,0,0-.36-.1.88.88,0,0,1-.48-.2.55.55,0,0,1-.2-.45,1.34,1.34,0,0,1,.4-.75c.22-.3.44-.59.68-.87s.48-.57.72-.88.49-.61.76-.93l.72-.84,1.24-1.61a20.39,20.39,0,0,0,1.24-1.77q.64-1,1.16-2t.92-1.83a13.24,13.24,0,0,0,.88-3.23,6.78,6.78,0,0,0-.24-3.12A3.74,3.74,0,0,0,113.36,23a4.53,4.53,0,0,0-1.68-.8,5,5,0,0,0-1.42-.19,7.34,7.34,0,0,0-1,.07" style="fill:#ff76bb"/></clipPath><clipPath id="clip-path-4"><path d="M138.58,17.25a10.42,10.42,0,0,0-2.8.82q-1.68.84-3.32,1.87a16.25,16.25,0,0,0-3.16,2.65l.48-1.36c.16-.45.32-.88.48-1.28a1.28,1.28,0,0,0,0-.31.6.6,0,0,0-.2-.29.62.62,0,0,0-.4-.13,1.18,1.18,0,0,0-.64.31q-1.12.59-2.24,1.21t-2.24,1.21q-1.12.67-2.28,1.3l-2.2,1.2a1.48,1.48,0,0,0-.4.51.34.34,0,0,0,0,.32.31.31,0,0,0,.24.12.49.49,0,0,0,.32-.09l2.12-.83,2.12-.83q-1.12,2.35-2.16,4.6-.56,1.29-1.16,2.59t-1.24,2.61q-.72,1.72-1.56,3.42t-1.72,3.37a8.43,8.43,0,0,1-.52,1,3.49,3.49,0,0,1-.68.79,3.86,3.86,0,0,1-1,.61,10.07,10.07,0,0,1-1.56.5,1.42,1.42,0,0,0-.68.91.38.38,0,0,0,.12.38c.11.09.35.1.72,0l1.4-.39,1.32-.38a8.51,8.51,0,0,1,1.4-.27,9,9,0,0,1,1.72,0,2.76,2.76,0,0,0,.56,0,5,5,0,0,0,.64-.07c.43-.18.88-.35,1.36-.5a9.92,9.92,0,0,0,1.4-.59,6.53,6.53,0,0,0,1.16-.75,2.48,2.48,0,0,0,.72-1,1.1,1.1,0,0,0,.08-.45.39.39,0,0,0-.16-.37c-.11-.06-.28,0-.52.09a4.5,4.5,0,0,0-1.08,1,2.08,2.08,0,0,1-.8.57.86.86,0,0,1-.8,0c-.21-.12-.32-.4-.32-.83a5.49,5.49,0,0,1,.48-1.84q.88-1.83,1.72-3.61t1.8-3.46l2-3.41a37.34,37.34,0,0,1,2.2-3.37,16.56,16.56,0,0,1,2.72-2.93,10.49,10.49,0,0,1,1.88-1.27A6.38,6.38,0,0,1,135.7,20a4.52,4.52,0,0,1,1.16-.19A2.92,2.92,0,0,1,138,20a2,2,0,0,1,.88.66,3,3,0,0,1,.52,1.23,7.22,7.22,0,0,1,.08,1.91,12.7,12.7,0,0,1-.48,2.56c-.21.57-.43,1.13-.64,1.67s-.46,1.1-.72,1.68a17.11,17.11,0,0,1-1,2c-.37.68-.75,1.36-1.12,2.07a18.17,18.17,0,0,1-1.16,1.83q-.68,1-1.32,1.78t-1.12,1.43c-.37.46-.72.93-1,1.41-.21.2-.31.36-.28.49a.76.76,0,0,0,.2.37.68.68,0,0,0,.44.21.46.46,0,0,0,.44-.15,10,10,0,0,1,1.36-.42,6.78,6.78,0,0,1,1.24-.17l1.2,0,1.24,0,1-.32a8,8,0,0,0,1.08-.42,5,5,0,0,0,1-.6,2.43,2.43,0,0,0,.68-.87,1.09,1.09,0,0,1,.12-.42.83.83,0,0,0,.08-.49.4.4,0,0,0-.24-.32,1.07,1.07,0,0,0-.68.07l-.72.4-.72.36a3.24,3.24,0,0,1-.84.26,9,9,0,0,1-1.08.1.77.77,0,0,0-.36-.1.86.86,0,0,1-.48-.2.54.54,0,0,1-.2-.45,1.32,1.32,0,0,1,.4-.75,11,11,0,0,1,.68-.87c.24-.28.48-.57.72-.88s.49-.62.76-.93l.72-.84,1.24-1.61a21.05,21.05,0,0,0,1.24-1.77q.64-1,1.16-2t.92-1.83a13.43,13.43,0,0,0,.88-3.23,6.72,6.72,0,0,0-.24-3.12,3.68,3.68,0,0,0-1.12-1.54,4.49,4.49,0,0,0-1.68-.8,5,5,0,0,0-1.43-.19,7.06,7.06,0,0,0-1,.07" style="fill:#ff76bb"/></clipPath><clipPath id="clip-path-5"><path d="M160.6,14.29q-.72.44-1.44.84t-1.44.84q-.72.44-1.44.84t-1.36.83l-2.68,1.56-2.68,1.56a1.44,1.44,0,0,0-.32.65.3.3,0,0,0,.2.29.76.76,0,0,0,.44,0l.4-.07,2.2-1q1.08-.5,2.12-.91-.56,1.13-1.2,2.36c-.43.82-.83,1.61-1.2,2.36-.21.46-.44.91-.68,1.35s-.47.89-.68,1.35-.63,1.19-.92,1.79-.6,1.21-.92,1.79-.54,1-.8,1.53-.53,1.06-.8,1.53-.35.8-.56,1.21l-.64,1.23a6,6,0,0,1-.6.86,2.52,2.52,0,0,1-.68.55,3.4,3.4,0,0,1-.72.2,3.93,3.93,0,0,0-1,.32,2.36,2.36,0,0,0-.8.53c-.16.19-.21.33-.16.43a.39.39,0,0,0,.24.36,1,1,0,0,0,.64.05l2.36-.39,2.36-.39,2.4-.4,2.4-.4a6.19,6.19,0,0,1,.72-.24,6.63,6.63,0,0,0,.76-.24,3.55,3.55,0,0,0,.68-.35,2.75,2.75,0,0,0,.56-.49,2,2,0,0,0,.12-.34,1.45,1.45,0,0,0,0-.29.24.24,0,0,0-.08-.19.44.44,0,0,0-.32,0q-.4.15-.84.26a3.48,3.48,0,0,0-.84.34,2.67,2.67,0,0,1-.72.2,2.55,2.55,0,0,1-.92,0,1.29,1.29,0,0,1-.68-.33c-.16-.16-.13-.42.08-.77L152,34l.8-1.57q.4-.87.84-1.74c.29-.58.6-1.17.92-1.75l1-2q.52-1,1.08-2c.27-.58.56-1.16.88-1.75l1-1.76q.32-.77.72-1.56c.27-.52.53-1,.8-1.5s.44-.92.68-1.39l.68-1.31a2.29,2.29,0,0,0,.16-.79,1,1,0,0,0-.12-.54.4.4,0,0,0-.32-.19h0a1,1,0,0,0-.51.21M164.92,0a2.9,2.9,0,0,0-1.08.42,4,4,0,0,0-.92.79c-.16.29-.31.6-.44.91a2.41,2.41,0,0,0-.2,1,2.45,2.45,0,0,0,.16.89,1.65,1.65,0,0,0,.48.68,1.56,1.56,0,0,0,.88.57,2.65,2.65,0,0,0,1.12.05,3.09,3.09,0,0,0,1.16-.43,2.89,2.89,0,0,0,.84-.78,3.08,3.08,0,0,0,.52-.89,2.72,2.72,0,0,0,.2-1,2.32,2.32,0,0,0-.24-1,1.79,1.79,0,0,0-.64-.74,2,2,0,0,0-.8-.39,2.36,2.36,0,0,0-.57-.07,2.78,2.78,0,0,0-.47,0" style="fill:#ff76bb"/></clipPath><clipPath id="clip-path-6"><path d="M168,24.95l-1.36-.06a5.34,5.34,0,0,1,.28-1.61q.28-.89.68-1.92c.37-.7.79-1.41,1.24-2.13a13.78,13.78,0,0,1,1.56-2A17.67,17.67,0,0,1,173,14.8a13.14,13.14,0,0,1,3-1.78,8.39,8.39,0,0,1,2.88-.84,3,3,0,0,1,2,.43,1.8,1.8,0,0,1,.68,1.49,5.51,5.51,0,0,1-.68,2.51,18.81,18.81,0,0,1-1.4,2.15,18.6,18.6,0,0,1-1.72,2,22.14,22.14,0,0,1-2.56,2,14.31,14.31,0,0,1-2.8,1.47,7,7,0,0,1-1.64.51c-.51.08-1,.15-1.44.2a10.58,10.58,0,0,1-1.11.06H168m15.13-15.6a9.18,9.18,0,0,0-1.24.13l-1.4.23a36.85,36.85,0,0,0-4,1.42,35.31,35.31,0,0,0-4.12,2.08,30.39,30.39,0,0,0-3,2,28.66,28.66,0,0,0-2.93,2.57q-1,1-2,2.37a14.73,14.73,0,0,0-1.76,2.89,10.88,10.88,0,0,0-.92,2.72,10.57,10.57,0,0,0-.12,3.06,6.3,6.3,0,0,0,.28,1c.13.38.29.78.48,1.2a8.79,8.79,0,0,0,.68,1.25,5.12,5.12,0,0,0,1,1.15,8.44,8.44,0,0,0,2.16,1.12,8.25,8.25,0,0,0,3.12.4,13.13,13.13,0,0,0,1.84-.1,17.41,17.41,0,0,0,2-.37,19,19,0,0,0,2-.62q1-.37,2-.86a20.25,20.25,0,0,0,2.84-1.83,12.68,12.68,0,0,0,2.2-2.13,6.09,6.09,0,0,0,.64-1c.11-.23.13-.39.08-.49a.36.36,0,0,0-.28,0,1.22,1.22,0,0,0-.4.15,3.34,3.34,0,0,0-.44.31,3.67,3.67,0,0,0-.4.39q-.8.53-1.56,1.14a19.38,19.38,0,0,1-1.6,1.15,11,11,0,0,1-1.88,1,6.61,6.61,0,0,1-2.24.45,13.89,13.89,0,0,1-1.4.15,5.31,5.31,0,0,1-1.56-.14,5.77,5.77,0,0,1-1.6-.66,4.9,4.9,0,0,1-1.44-1.32l-.52-.6a2.88,2.88,0,0,1-.48-.76,8,8,0,0,1-.36-1,3.49,3.49,0,0,1-.08-1.35l2.4-.24c.86-.09,1.73-.21,2.64-.36a19.35,19.35,0,0,0,3.52-.94,13,13,0,0,0,3.28-1.78q1-.65,2.08-1.35a14.27,14.27,0,0,0,2-1.61,14.39,14.39,0,0,0,1.72-2,9.34,9.34,0,0,0,1.24-2.41,12.76,12.76,0,0,1,.48-1.52,8.15,8.15,0,0,0,.44-1.71,3.29,3.29,0,0,0-.16-1.62,2.44,2.44,0,0,0-1.16-1.25,4.5,4.5,0,0,0-1.12-.29,8,8,0,0,0-1-.06h-.16" style="fill:#ff76bb"/></clipPath><clipPath id="clip-path-7"><path d="M194.47,20.58l-1.36-.06a5.34,5.34,0,0,1,.28-1.61c.18-.59.41-1.23.68-1.91s.79-1.41,1.24-2.13a13.57,13.57,0,0,1,1.56-2,17.55,17.55,0,0,1,2.56-2.43,13.29,13.29,0,0,1,3-1.78,8.38,8.38,0,0,1,2.88-.84,3,3,0,0,1,2,.43A1.79,1.79,0,0,1,208,9.72a5.49,5.49,0,0,1-.68,2.51,18.19,18.19,0,0,1-3.12,4.12,22,22,0,0,1-2.56,2,14.49,14.49,0,0,1-2.8,1.47,6.93,6.93,0,0,1-1.64.51c-.51.08-1,.15-1.44.2a10.4,10.4,0,0,1-1.11.06h-.21M209.6,5a8.85,8.85,0,0,0-1.24.13l-1.4.23a36.07,36.07,0,0,0-4,1.42,35,35,0,0,0-4.12,2.08,30.82,30.82,0,0,0-3,2,28.8,28.8,0,0,0-2.92,2.56q-1,1-2,2.37a14.55,14.55,0,0,0-1.76,2.89,10.83,10.83,0,0,0-.92,2.72,10.44,10.44,0,0,0-.12,3.06,6,6,0,0,0,.28,1c.13.38.29.78.48,1.2a8.89,8.89,0,0,0,.68,1.25,5.2,5.2,0,0,0,1,1.15,8.45,8.45,0,0,0,2.16,1.12,8.26,8.26,0,0,0,3.12.4,12.82,12.82,0,0,0,1.84-.1,17.81,17.81,0,0,0,2-.37,18.67,18.67,0,0,0,2-.62c.67-.24,1.35-.53,2-.86a20.1,20.1,0,0,0,2.84-1.83,12.61,12.61,0,0,0,2.2-2.13,6.17,6.17,0,0,0,.64-1,.63.63,0,0,0,.08-.49.38.38,0,0,0-.28,0,1.29,1.29,0,0,0-.4.15,3.64,3.64,0,0,0-.84.7q-.8.53-1.56,1.14t-1.6,1.14a10.79,10.79,0,0,1-1.88,1,6.58,6.58,0,0,1-2.24.45,13.26,13.26,0,0,1-1.4.15,5.27,5.27,0,0,1-1.56-.14,5.72,5.72,0,0,1-1.6-.65,4.87,4.87,0,0,1-1.44-1.32l-.52-.6a2.85,2.85,0,0,1-.48-.76,8.27,8.27,0,0,1-.36-1,3.57,3.57,0,0,1-.08-1.35l2.4-.24q1.28-.13,2.64-.36a19.07,19.07,0,0,0,3.52-.94,13.1,13.1,0,0,0,3.28-1.79q1-.65,2.08-1.35A14.8,14.8,0,0,0,211,13.83a9.33,9.33,0,0,0,1.24-2.41,12.59,12.59,0,0,1,.48-1.52,8.08,8.08,0,0,0,.44-1.71A3.26,3.26,0,0,0,213,6.58a2.43,2.43,0,0,0-1.16-1.25,4.46,4.46,0,0,0-1.12-.3,8.19,8.19,0,0,0-1-.06h-.16" style="fill:#ff76bb"/></clipPath></defs><title>logo</title><g id="圖層_6" data-name="圖層 6"><path d="M6.61,96c3.19-.58,4-3.29,4.36-5.09H6.7V88.77h4.55l.09-2.38V84.73H7.42V82.6h3.92V78.76H7.23V76.63h4.11V74.47h2v2.16h3.88v2.13H13.3V82.6h3.6v2.13H13.3v1.66l-.12,2.38h4.08v2.13H12.93c-.6,3.19-1.34,5.57-4.89,6.8Zm14-18.82q-.28,0-.28.3V97.63h-2V75.45c0-.28.09-.4.35-.4h7.54l1.32,1.18-2.47,7.63a.29.29,0,0,0,0,.13.45.45,0,0,0,.14.3c1.64,2.08,2.75,3.89,2.75,6.62a6,6,0,0,1-.53,2.53,3.23,3.23,0,0,1-3.23,2,9.25,9.25,0,0,1-2.82-.55l0-2.46a6.15,6.15,0,0,0,2.61.83c1.32,0,2-1,2-2.74a7.77,7.77,0,0,0-.07-1,13.08,13.08,0,0,0-2.79-4.82,1.11,1.11,0,0,1-.25-.58.24.24,0,0,1,0-.13l2.12-6.6.07-.27Z" style="fill:#ff76bb"/><path d="M46.33,91.94l-3-2.81a1.51,1.51,0,0,1-.12-.58,3.24,3.24,0,0,1,.12-.73,58.91,58.91,0,0,0,1.59-7.5h-1.5V78.18H45.2l.41-3.66,1.94.25-.32,3.41h3.42c.32,0,.49.23.44.63L51,80.72a38.91,38.91,0,0,1-2.12,10.74l1.71,1.63-1.09,1.78-1.55-1.43a23,23,0,0,1-3.07,4.09L43,96.2A18.2,18.2,0,0,0,45.76,93Zm.9-2A33,33,0,0,0,49,80.32H47a75.32,75.32,0,0,1-1.57,7.5l0,.25.21.28Zm4.5-14.1c0-.5.21-.75.69-.75h10.8a.68.68,0,0,1,.74.78V82.4c0,.55-.25.8-.74.8H53.6v4.74a24.17,24.17,0,0,1-2,9.79l-1.8-1a22.2,22.2,0,0,0,1.91-9.61Zm2.15,1.28c-.18,0-.28.1-.28.33v3.71h8.17a.3.3,0,0,0,.32-.33V77.45a.28.28,0,0,0-.32-.33Zm2.91,11.59a18.84,18.84,0,0,0,5.68-4.09l1.32,1.56a20.61,20.61,0,0,1-7,4.84v3c0,.78,0,1.41,1.25,1.41h2.91a1.51,1.51,0,0,0,1.32-.58,12.38,12.38,0,0,0,.28-3.66l2,.33c0,2.89-.16,4.59-.58,5.09-.62.78-.83,1-2.35,1H57.18c-1.32,0-2.4-.83-2.36-3.19V84.23h2Z" style="fill:#ff76bb"/><path d="M79.85,95.35q7.23-.41,9-3.51H80.36v-2h9l0-.65V87.62H79.89v-2h9.44v-2h-7.8v-2h7.8V79.69H80.54v-2h5.33a11.64,11.64,0,0,0-1.36-2l1.57-1.28A14.46,14.46,0,0,1,87.88,77l-.85.65h5.7c.69-1.48,1.2-2.58,1.43-3.26l1.73,1-1,2.28H100v2H91.27v1.88H99v2H91.27v2h9.39v2h-9.3v1.53l0,.65h8.88v2H92.15c1.89,2.41,4.85,3.69,8.77,3.71l-.51,2.18h-.23a12.67,12.67,0,0,1-9.72-4.89l-.65,1C88.23,95.72,85,97,80.36,97.63Z" style="fill:#ff76bb"/><path d="M135.72,94.12a21.83,21.83,0,0,1-5.19-9.49h-1.25v6.78l2.59-.8.48,2A30.35,30.35,0,0,1,127,94a5.93,5.93,0,0,0,1.5,1.05,9.14,9.14,0,0,0,2.45.2c1.5,0,3.65-.1,6.42-.28l-.51,2.16-7.2-.08c-2-.13-3.32-.85-4-2.13a5.32,5.32,0,0,1-2.45,2.43l-.79-1.46A1.44,1.44,0,0,1,121,97.51a19.73,19.73,0,0,1-2-.12l-.23-2.11a8.21,8.21,0,0,0,1.57.3c.23,0,.3-.08.3-.25v-5.8h-2.12a55.83,55.83,0,0,1-.67,7.8l-1.91-.43a48.18,48.18,0,0,0,.83-9.09V75.52c0-.33.14-.48.42-.48H122l.3.13.16.35V95.57a4.9,4.9,0,0,0,1.71-1.38l.35-1v-5a.23.23,0,0,0-.25-.25H123V86h2.93c.3,0,.46.15.46.5V92l1.15-.23V75.63c0-.38.18-.58.51-.58h7.66a.5.5,0,0,1,.55.58V84c0,.4-.19.6-.58.6h-3.21a14.45,14.45,0,0,0,.88,2.71A22,22,0,0,0,136,85.61l.9,1.68A19.73,19.73,0,0,1,134.2,89a18.23,18.23,0,0,0,3.23,3.86Zm-17.17-12.8h2.1V77.18l-.07-.15-.14-.05h-1.71a.18.18,0,0,0-.18.2Zm0,6.27h2.1V83.25h-2.1Zm6.78-3.06a19.7,19.7,0,0,0-2.45-2.59l1.25-1.51a16.88,16.88,0,0,1,2.56,2.63Zm.28-4.89A19.52,19.52,0,0,0,123,76.85l1.27-1.51A18.08,18.08,0,0,1,127,78.18ZM129.7,77c-.28,0-.42.15-.42.48v1.33h5.17V77.45c0-.33-.16-.48-.46-.48Zm-.42,3.74v2h4.87c.21,0,.3-.1.3-.33V80.72Z" style="fill:#ff76bb"/><path d="M173.23,80.37a50.83,50.83,0,0,1-6-1.81v1.3h-7.85V78.54a52,52,0,0,1-6.14,1.76l-.67-2c5.1-.73,8.63-2.06,10.48-3.91l1.64.75-.16.17a26.42,26.42,0,0,0,9.46,3.06ZM172.06,87a.24.24,0,0,1-.25.28H154.59a.24.24,0,0,1-.25-.28v-5.9a.22.22,0,0,1,.25-.25H171.8a.22.22,0,0,1,.25.25Zm-14.38,9.51v.9h-1.87V88.9c0-.2.07-.33.3-.33h14.35a.35.35,0,0,1,.39.4v8.48H169v-.9Zm1.73-13.7a14.61,14.61,0,0,1,1.27,2.63h1.66V82.73h-6.16c-.07,0-.09,0-.07.08v2.58l.07.1h2.52l-.88-1.71Zm-1.73,8.86H169V90.58a.25.25,0,0,0-.28-.28H157.93c-.18,0-.28.1-.25.28ZM169,93.44H157.68V94.8H169ZM166,78l-2.86-1.53A21.2,21.2,0,0,1,160.52,78ZM168.83,84l-.85,1.5h2.22l.09-.1V82.8l-.09-.08h-6v2.76h1.57a17.29,17.29,0,0,0,1.59-2.58Z" style="fill:#ff76bb"/><path d="M196.57,79a24.16,24.16,0,0,1-2.47-2.26A18.2,18.2,0,0,1,190.43,80l-1.61-1.33a11.82,11.82,0,0,0,4.52-4l1.78.15-.16.38a34.32,34.32,0,0,0,3,2.16Zm0,17.26a69.36,69.36,0,0,1-7.11,1.38L189,95.52l1.13-.15V81.19a.49.49,0,0,1,.53-.55H193v-2h1.78v2h2.14a.5.5,0,0,1,.55.55v9.28c0,.43-.18.63-.58.63H192V95l3.9-.83-.74-1.81,1.69-.68c1,2.79,1.68,4.54,1.87,5.17l-1.71.55ZM192,84.86h3.72V83a.41.41,0,0,0-.46-.45h-2.84c-.3,0-.42.15-.42.45Zm3.72,1.93H192v2.38h3.42c.21,0,.3-.1.3-.33Zm7.11-10.56V74.6h2v1.63h4.13l1.61.88a19.13,19.13,0,0,1-.94,4.12l-1.69-.6a14.45,14.45,0,0,0,.53-2.16c0-.2-.07-.3-.23-.3h-8.1a.18.18,0,0,0-.18.2V81H198.1V76.6c0-.25.11-.38.35-.38Zm6.85,20.3c0,.48-.23.73-.67.73H200.1c-.39,0-.6-.23-.6-.68V81.7c0-.38.18-.58.51-.58h8.38a.5.5,0,0,1,.55.58v5.67c0,.4-.18.6-.55.6h-7v1.78H209c.42,0,.62.23.62.65Zm-8-13.47a.24.24,0,0,0-.25.27V86h5.42c.19,0,.28-.1.28-.3V83.33a.25.25,0,0,0-.28-.27Zm6,8.86c0-.15-.07-.23-.21-.23h-6v3.24c0,.18.07.25.21.25h5.84c.14,0,.21-.07.21-.25Z" style="fill:#ff76bb"/><path d="M46.37,15a2.2,2.2,0,0,0-.68.43,29.54,29.54,0,0,0-3,2.46A35.51,35.51,0,0,0,40,20.7q-1.44,1.76-2.72,3.65t-2.48,3.93q-1.52,2.66-2.92,5.45T29,39.33q-1.28,2.62-2.64,5.16t-2.8,4.95a24.91,24.91,0,0,1-3.92,5.17,21.06,21.06,0,0,1-4.72,3.62,15.27,15.27,0,0,1-2.8,1.26,11.6,11.6,0,0,1-2.76.58A11.83,11.83,0,0,1,6.78,60a6.18,6.18,0,0,1-2.32-.82A8.47,8.47,0,0,1,2.3,57.41a9.16,9.16,0,0,1-1.6-2.66c-.11-.19-.21-.29-.32-.27a.33.33,0,0,0-.24.16A1.07,1.07,0,0,0,0,55a1,1,0,0,0,0,.47,6.72,6.72,0,0,0,1.8,3.3,8.51,8.51,0,0,0,3.16,2,11.81,11.81,0,0,0,4.65.67,19.18,19.18,0,0,0,5.36-1,27.42,27.42,0,0,0,2.88-1.32,22.31,22.31,0,0,0,2.84-1.79A28,28,0,0,0,23.47,55,24.59,24.59,0,0,0,26,52.17q1.2-1.56,2.32-3.31t2.16-3.64q1-1.89,2-3.89l1.92-4q1.52-3.37,3-6.67t3-6.19a45.77,45.77,0,0,1,3-5.06,23.08,23.08,0,0,1,3.24-3.82c.32-.21.48-.39.48-.52s-.08-.2-.24-.2a1.8,1.8,0,0,0-.6.14M59,5.31A37,37,0,0,1,53.62,7.8a29.75,29.75,0,0,1-4.68,1.3,33.6,33.6,0,0,1-4.32.52q-2.12.11-4.29.15-2.32,0-4.84,0a53.75,53.75,0,0,0-5.49.35,12,12,0,0,0-3.44.61,25.16,25.16,0,0,0-3.8,1.59,25.7,25.7,0,0,0-3.84,2.44,28.22,28.22,0,0,0-3.48,3.14,25.91,25.91,0,0,0-2.56,3.54,15.42,15.42,0,0,0-2.2,8.29,12.46,12.46,0,0,0,1,4.56.76.76,0,0,0,.72.12c.21-.09.37-.41.48-1a18.34,18.34,0,0,1-.6-3.66A13.38,13.38,0,0,1,12.54,26a15,15,0,0,1,1.28-3.58,13.07,13.07,0,0,1,2.24-3.17,16.78,16.78,0,0,1,4.12-3.16,18.65,18.65,0,0,1,5.64-2,15.58,15.58,0,0,1,2.68-.52q1.4-.15,2.92-.25t3.16-.12l3.24-.06q2.56-.1,5.17-.33a35.77,35.77,0,0,0,5-.79,6.16,6.16,0,0,0,1.48-.48q.84-.38,1.72-.84l1.84-1Q54,9.26,55,8.7l2.2-1.13A8.22,8.22,0,0,1,59,6.87a1.55,1.55,0,0,1,1.2.12q.44.29.28,1.27a4.73,4.73,0,0,1-.08,1.46,15.48,15.48,0,0,1-.48,1.8,21.88,21.88,0,0,1-.8,2.06Q58.67,14.66,58,15.8q-.8,1.26-1.72,2.45a22.39,22.39,0,0,1-2,2.3,15.33,15.33,0,0,1-2.44,2,15,15,0,0,1-2.76,1.42,3.34,3.34,0,0,0-1.72,1.68,1.51,1.51,0,0,0,.36,1.58,14,14,0,0,1,2.48,2.27A15.22,15.22,0,0,1,51.94,32a11.23,11.23,0,0,1,1.2,3.45,13.84,13.84,0,0,1,.16,3.61,17.41,17.41,0,0,1-1.24,5,18.44,18.44,0,0,1-2.6,4.47,19.49,19.49,0,0,1-5,4.59,14,14,0,0,1-2.84,1.39,10.43,10.43,0,0,1-2.92.61,8.91,8.91,0,0,1-4.2-1,10.17,10.17,0,0,1-3.72-3.47.74.74,0,0,0-.28-.11.68.68,0,0,0-.4,0,.35.35,0,0,0-.24.24c0,.11,0,.29.2.53a10.93,10.93,0,0,0,2.56,2.94,11.27,11.27,0,0,0,3,1.71,10,10,0,0,0,3.24.63,18.38,18.38,0,0,0,3.44-.25,16.19,16.19,0,0,0,3-1,20.06,20.06,0,0,0,2.88-1.56,25.83,25.83,0,0,0,2.68-2,18,18,0,0,0,2.32-2.39,21.65,21.65,0,0,0,2.84-4.23,14.45,14.45,0,0,0,1.48-4.65,12,12,0,0,0-.24-5,11.21,11.21,0,0,0-2.56-4.66,17.76,17.76,0,0,0-2.2-2,18.92,18.92,0,0,0-2.76-1.75,3.55,3.55,0,0,1-1-1.15.65.65,0,0,1,0-.64.76.76,0,0,1,.52-.29,2.1,2.1,0,0,0,.6-.18q1-.32,2-.73t2.08-.91q1-.49,2.08-1.06c.69-.38,1.36-.79,2-1.21a20.52,20.52,0,0,0,1.72-1.37,15,15,0,0,0,1.52-1.53,8.66,8.66,0,0,0,1.8-3.3q.24-1.4.4-2.79a14.36,14.36,0,0,0,.08-2.58,9.54,9.54,0,0,0-.32-1.87,3.11,3.11,0,0,0-.8-1.39A3.45,3.45,0,0,0,61,5.38,3.61,3.61,0,0,0,60,5.23a6.1,6.1,0,0,0-1,.08" style="fill:#ff76bb"/><g style="clip-path:url(#clip-path)"><rect x="-1.71" y="3.3" width="67" height="60.14" transform="translate(-2.02 2.05) rotate(-3.58)" style="fill:#ff76bb"/></g><path d="M67.79,50.14a2.83,2.83,0,0,1-1.36-1,4.29,4.29,0,0,1-.68-1.61,6.62,6.62,0,0,1-.08-2.07,17,17,0,0,1,.44-2.4,16,16,0,0,1,1-2.88q.64-1.47,1.36-2.87a19.67,19.67,0,0,1,2.12-3.07,19,19,0,0,1,2.6-2.59,15.09,15.09,0,0,1,2-1.41,10.44,10.44,0,0,1,2-.93A5.28,5.28,0,0,1,79,29a3.66,3.66,0,0,1,1.56.38A3.6,3.6,0,0,1,82.21,32,9.73,9.73,0,0,1,82,36a15.94,15.94,0,0,1-1,3,24.74,24.74,0,0,1-1.76,3.22A22.34,22.34,0,0,1,76.52,46a19.45,19.45,0,0,1-3,2.77,9.12,9.12,0,0,1-2.92,1.44,4.93,4.93,0,0,1-1.31.18,4.47,4.47,0,0,1-1.54-.27M78.2,27.6A13.7,13.7,0,0,0,74,28.69a18.07,18.07,0,0,0-1.76.89q-.88.5-1.76,1.05c-.59.42-1.18.86-1.76,1.33s-1.17,1-1.76,1.49a12.06,12.06,0,0,0-1.88,2.27,19.35,19.35,0,0,0-1.48,2.77,26.88,26.88,0,0,0-.92,3.07,13.55,13.55,0,0,0-.36,3.06,8.91,8.91,0,0,0,.2,1.89,7.5,7.5,0,0,0,.6,1.74,5.27,5.27,0,0,0,2.33,2.5,7.58,7.58,0,0,0,2.2.76,8.78,8.78,0,0,0,2.44.08,14.36,14.36,0,0,0,2.56-.51,14.68,14.68,0,0,0,2.48-1,18.34,18.34,0,0,0,2.72-1.49,22.35,22.35,0,0,0,2.4-1.84,25.92,25.92,0,0,0,2-2,11.79,11.79,0,0,0,1.48-2.13,17.75,17.75,0,0,0,1.08-2.3,16.25,16.25,0,0,0,.68-2.23,15.15,15.15,0,0,0,.32-2.1,11,11,0,0,0,0-1.88,8.3,8.3,0,0,0-.4-2.06,9.06,9.06,0,0,0-.8-1.75,7.2,7.2,0,0,0-1.24-1.35,5.43,5.43,0,0,0-1.56-.9,7.63,7.63,0,0,0-2.76-.48c-.28,0-.56,0-.85,0" style="fill:#ff76bb"/><g style="clip-path:url(#clip-path-2)"><rect x="61.62" y="26.85" width="24.97" height="25.54" transform="translate(-2.33 4.7) rotate(-3.58)" style="fill:#ff76bb"/></g><path d="M109.27,22.1a10.42,10.42,0,0,0-2.8.83q-1.68.84-3.32,1.87A16.32,16.32,0,0,0,100,27.44l.48-1.36c.16-.46.32-.88.48-1.28a1.31,1.31,0,0,0,0-.31.58.58,0,0,0-.2-.29.62.62,0,0,0-.4-.13,1.2,1.2,0,0,0-.64.3q-1.12.59-2.24,1.21t-2.24,1.21q-1.12.67-2.28,1.3l-2.2,1.2a1.47,1.47,0,0,0-.4.51.33.33,0,0,0,0,.32.32.32,0,0,0,.24.12.48.48,0,0,0,.32-.09L93,29.32l2.12-.83q-1.12,2.35-2.16,4.6-.56,1.3-1.16,2.59t-1.24,2.61Q89.81,40,89,41.71t-1.72,3.37a8.28,8.28,0,0,1-.52,1,3.47,3.47,0,0,1-.68.79,3.88,3.88,0,0,1-1,.61,10.28,10.28,0,0,1-1.56.5,1.42,1.42,0,0,0-.68.91.38.38,0,0,0,.12.38c.11.09.35.1.72,0l1.4-.39,1.32-.38a8.76,8.76,0,0,1,1.4-.27,9,9,0,0,1,1.72,0,2.7,2.7,0,0,0,.56,0,4.7,4.7,0,0,0,.64-.07c.43-.18.88-.35,1.36-.5a9.83,9.83,0,0,0,1.4-.59,6.56,6.56,0,0,0,1.16-.75,2.44,2.44,0,0,0,.72-1,1.09,1.09,0,0,0,.08-.45.4.4,0,0,0-.16-.37q-.16-.09-.52.09a4.51,4.51,0,0,0-1.08,1,2.09,2.09,0,0,1-.8.57.87.87,0,0,1-.8,0c-.21-.12-.32-.4-.32-.83a5.48,5.48,0,0,1,.48-1.84q.88-1.83,1.72-3.61c.56-1.18,1.16-2.34,1.8-3.46s1.29-2.26,2-3.41a37.36,37.36,0,0,1,2.2-3.37,16.67,16.67,0,0,1,2.72-2.93,10.51,10.51,0,0,1,1.88-1.27,6.43,6.43,0,0,1,1.88-.63,4.53,4.53,0,0,1,1.16-.19,3,3,0,0,1,1.12.17,2,2,0,0,1,.88.66,3,3,0,0,1,.52,1.24,7.21,7.21,0,0,1,.08,1.91,13.17,13.17,0,0,1-.48,2.56q-.32.86-.64,1.67c-.22.54-.45,1.1-.72,1.68a17.31,17.31,0,0,1-1,2c-.38.68-.75,1.37-1.12,2.07a18.74,18.74,0,0,1-1.16,1.83q-.68,1-1.32,1.78t-1.12,1.43q-.56.69-1,1.41c-.21.2-.31.36-.28.49a.76.76,0,0,0,.2.37.68.68,0,0,0,.44.21.47.47,0,0,0,.44-.15,9.89,9.89,0,0,1,1.36-.43,6.65,6.65,0,0,1,1.24-.17l1.2,0,1.24,0,1-.32a8,8,0,0,0,1.08-.42,4.83,4.83,0,0,0,1-.6,2.39,2.39,0,0,0,.68-.87,1.12,1.12,0,0,1,.12-.42.83.83,0,0,0,.08-.49.4.4,0,0,0-.24-.32,1.05,1.05,0,0,0-.68.07l-.72.4-.72.36a3.32,3.32,0,0,1-.84.26,9.22,9.22,0,0,1-1.08.1.79.79,0,0,0-.36-.1.88.88,0,0,1-.48-.2.55.55,0,0,1-.2-.45,1.34,1.34,0,0,1,.4-.75c.22-.3.44-.59.68-.87s.48-.57.72-.88.49-.61.76-.93l.72-.84,1.24-1.61a20.39,20.39,0,0,0,1.24-1.77q.64-1,1.16-2t.92-1.83a13.24,13.24,0,0,0,.88-3.23,6.78,6.78,0,0,0-.24-3.12A3.74,3.74,0,0,0,113.36,23a4.53,4.53,0,0,0-1.68-.8,5,5,0,0,0-1.42-.19,7.34,7.34,0,0,0-1,.07" style="fill:#ff76bb"/><g style="clip-path:url(#clip-path-3)"><rect x="81.96" y="21.05" width="33.74" height="29.26" transform="translate(-2.03 6.23) rotate(-3.58)" style="fill:#ff76bb"/></g><path d="M138.58,17.25a10.42,10.42,0,0,0-2.8.82q-1.68.84-3.32,1.87a16.25,16.25,0,0,0-3.16,2.65l.48-1.36c.16-.45.32-.88.48-1.28a1.28,1.28,0,0,0,0-.31.6.6,0,0,0-.2-.29.62.62,0,0,0-.4-.13,1.18,1.18,0,0,0-.64.31q-1.12.59-2.24,1.21t-2.24,1.21q-1.12.67-2.28,1.3l-2.2,1.2a1.48,1.48,0,0,0-.4.51.34.34,0,0,0,0,.32.31.31,0,0,0,.24.12.49.49,0,0,0,.32-.09l2.12-.83,2.12-.83q-1.12,2.35-2.16,4.6-.56,1.29-1.16,2.59t-1.24,2.61q-.72,1.72-1.56,3.42t-1.72,3.37a8.43,8.43,0,0,1-.52,1,3.49,3.49,0,0,1-.68.79,3.86,3.86,0,0,1-1,.61,10.07,10.07,0,0,1-1.56.5,1.42,1.42,0,0,0-.68.91.38.38,0,0,0,.12.38c.11.09.35.1.72,0l1.4-.39,1.32-.38a8.51,8.51,0,0,1,1.4-.27,9,9,0,0,1,1.72,0,2.76,2.76,0,0,0,.56,0,5,5,0,0,0,.64-.07c.43-.18.88-.35,1.36-.5a9.92,9.92,0,0,0,1.4-.59,6.53,6.53,0,0,0,1.16-.75,2.48,2.48,0,0,0,.72-1,1.1,1.1,0,0,0,.08-.45.39.39,0,0,0-.16-.37c-.11-.06-.28,0-.52.09a4.5,4.5,0,0,0-1.08,1,2.08,2.08,0,0,1-.8.57.86.86,0,0,1-.8,0c-.21-.12-.32-.4-.32-.83a5.49,5.49,0,0,1,.48-1.84q.88-1.83,1.72-3.61t1.8-3.46l2-3.41a37.34,37.34,0,0,1,2.2-3.37,16.56,16.56,0,0,1,2.72-2.93,10.49,10.49,0,0,1,1.88-1.27A6.38,6.38,0,0,1,135.7,20a4.52,4.52,0,0,1,1.16-.19A2.92,2.92,0,0,1,138,20a2,2,0,0,1,.88.66,3,3,0,0,1,.52,1.23,7.22,7.22,0,0,1,.08,1.91,12.7,12.7,0,0,1-.48,2.56c-.21.57-.43,1.13-.64,1.67s-.46,1.1-.72,1.68a17.11,17.11,0,0,1-1,2c-.37.68-.75,1.36-1.12,2.07a18.17,18.17,0,0,1-1.16,1.83q-.68,1-1.32,1.78t-1.12,1.43c-.37.46-.72.93-1,1.41-.21.2-.31.36-.28.49a.76.76,0,0,0,.2.37.68.68,0,0,0,.44.21.46.46,0,0,0,.44-.15,10,10,0,0,1,1.36-.42,6.78,6.78,0,0,1,1.24-.17l1.2,0,1.24,0,1-.32a8,8,0,0,0,1.08-.42,5,5,0,0,0,1-.6,2.43,2.43,0,0,0,.68-.87,1.09,1.09,0,0,1,.12-.42.83.83,0,0,0,.08-.49.4.4,0,0,0-.24-.32,1.07,1.07,0,0,0-.68.07l-.72.4-.72.36a3.24,3.24,0,0,1-.84.26,9,9,0,0,1-1.08.1.77.77,0,0,0-.36-.1.86.86,0,0,1-.48-.2.54.54,0,0,1-.2-.45,1.32,1.32,0,0,1,.4-.75,11,11,0,0,1,.68-.87c.24-.28.48-.57.72-.88s.49-.62.76-.93l.72-.84,1.24-1.61a21.05,21.05,0,0,0,1.24-1.77q.64-1,1.16-2t.92-1.83a13.43,13.43,0,0,0,.88-3.23,6.72,6.72,0,0,0-.24-3.12,3.68,3.68,0,0,0-1.12-1.54,4.49,4.49,0,0,0-1.68-.8,5,5,0,0,0-1.43-.19,7.06,7.06,0,0,0-1,.07" style="fill:#ff76bb"/><g style="clip-path:url(#clip-path-4)"><rect x="111.27" y="16.21" width="33.74" height="29.26" transform="translate(-1.67 8.05) rotate(-3.58)" style="fill:#ff76bb"/></g><path d="M160.6,14.29q-.72.44-1.44.84t-1.44.84q-.72.44-1.44.84t-1.36.83l-2.68,1.56-2.68,1.56a1.44,1.44,0,0,0-.32.65.3.3,0,0,0,.2.29.76.76,0,0,0,.44,0l.4-.07,2.2-1q1.08-.5,2.12-.91-.56,1.13-1.2,2.36c-.43.82-.83,1.61-1.2,2.36-.21.46-.44.91-.68,1.35s-.47.89-.68,1.35-.63,1.19-.92,1.79-.6,1.21-.92,1.79-.54,1-.8,1.53-.53,1.06-.8,1.53-.35.8-.56,1.21l-.64,1.23a6,6,0,0,1-.6.86,2.52,2.52,0,0,1-.68.55,3.4,3.4,0,0,1-.72.2,3.93,3.93,0,0,0-1,.32,2.36,2.36,0,0,0-.8.53c-.16.19-.21.33-.16.43a.39.39,0,0,0,.24.36,1,1,0,0,0,.64.05l2.36-.39,2.36-.39,2.4-.4,2.4-.4a6.19,6.19,0,0,1,.72-.24,6.63,6.63,0,0,0,.76-.24,3.55,3.55,0,0,0,.68-.35,2.75,2.75,0,0,0,.56-.49,2,2,0,0,0,.12-.34,1.45,1.45,0,0,0,0-.29.24.24,0,0,0-.08-.19.44.44,0,0,0-.32,0q-.4.15-.84.26a3.48,3.48,0,0,0-.84.34,2.67,2.67,0,0,1-.72.2,2.55,2.55,0,0,1-.92,0,1.29,1.29,0,0,1-.68-.33c-.16-.16-.13-.42.08-.77L152,34l.8-1.57q.4-.87.84-1.74c.29-.58.6-1.17.92-1.75l1-2q.52-1,1.08-2c.27-.58.56-1.16.88-1.75l1-1.76q.32-.77.72-1.56c.27-.52.53-1,.8-1.5s.44-.92.68-1.39l.68-1.31a2.29,2.29,0,0,0,.16-.79,1,1,0,0,0-.12-.54.4.4,0,0,0-.32-.19h0a1,1,0,0,0-.51.21M164.92,0a2.9,2.9,0,0,0-1.08.42,4,4,0,0,0-.92.79c-.16.29-.31.6-.44.91a2.41,2.41,0,0,0-.2,1,2.45,2.45,0,0,0,.16.89,1.65,1.65,0,0,0,.48.68,1.56,1.56,0,0,0,.88.57,2.65,2.65,0,0,0,1.12.05,3.09,3.09,0,0,0,1.16-.43,2.89,2.89,0,0,0,.84-.78,3.08,3.08,0,0,0,.52-.89,2.72,2.72,0,0,0,.2-1,2.32,2.32,0,0,0-.24-1,1.79,1.79,0,0,0-.64-.74,2,2,0,0,0-.8-.39,2.36,2.36,0,0,0-.57-.07,2.78,2.78,0,0,0-.47,0" style="fill:#ff76bb"/><g style="clip-path:url(#clip-path-5)"><rect x="141" y="-0.75" width="27.86" height="41.15" transform="translate(-0.93 9.71) rotate(-3.58)" style="fill:#ff76bb"/></g><path d="M168,24.95l-1.36-.06a5.34,5.34,0,0,1,.28-1.61q.28-.89.68-1.92c.37-.7.79-1.41,1.24-2.13a13.78,13.78,0,0,1,1.56-2A17.67,17.67,0,0,1,173,14.8a13.14,13.14,0,0,1,3-1.78,8.39,8.39,0,0,1,2.88-.84,3,3,0,0,1,2,.43,1.8,1.8,0,0,1,.68,1.49,5.51,5.51,0,0,1-.68,2.51,18.81,18.81,0,0,1-1.4,2.15,18.6,18.6,0,0,1-1.72,2,22.14,22.14,0,0,1-2.56,2,14.31,14.31,0,0,1-2.8,1.47,7,7,0,0,1-1.64.51c-.51.08-1,.15-1.44.2a10.58,10.58,0,0,1-1.11.06H168m15.13-15.6a9.18,9.18,0,0,0-1.24.13l-1.4.23a36.85,36.85,0,0,0-4,1.42,35.31,35.31,0,0,0-4.12,2.08,30.39,30.39,0,0,0-3,2,28.66,28.66,0,0,0-2.93,2.57q-1,1-2,2.37a14.73,14.73,0,0,0-1.76,2.89,10.88,10.88,0,0,0-.92,2.72,10.57,10.57,0,0,0-.12,3.06,6.3,6.3,0,0,0,.28,1c.13.38.29.78.48,1.2a8.79,8.79,0,0,0,.68,1.25,5.12,5.12,0,0,0,1,1.15,8.44,8.44,0,0,0,2.16,1.12,8.25,8.25,0,0,0,3.12.4,13.13,13.13,0,0,0,1.84-.1,17.41,17.41,0,0,0,2-.37,19,19,0,0,0,2-.62q1-.37,2-.86a20.25,20.25,0,0,0,2.84-1.83,12.68,12.68,0,0,0,2.2-2.13,6.09,6.09,0,0,0,.64-1c.11-.23.13-.39.08-.49a.36.36,0,0,0-.28,0,1.22,1.22,0,0,0-.4.15,3.34,3.34,0,0,0-.44.31,3.67,3.67,0,0,0-.4.39q-.8.53-1.56,1.14a19.38,19.38,0,0,1-1.6,1.15,11,11,0,0,1-1.88,1,6.61,6.61,0,0,1-2.24.45,13.89,13.89,0,0,1-1.4.15,5.31,5.31,0,0,1-1.56-.14,5.77,5.77,0,0,1-1.6-.66,4.9,4.9,0,0,1-1.44-1.32l-.52-.6a2.88,2.88,0,0,1-.48-.76,8,8,0,0,1-.36-1,3.49,3.49,0,0,1-.08-1.35l2.4-.24c.86-.09,1.73-.21,2.64-.36a19.35,19.35,0,0,0,3.52-.94,13,13,0,0,0,3.28-1.78q1-.65,2.08-1.35a14.27,14.27,0,0,0,2-1.61,14.39,14.39,0,0,0,1.72-2,9.34,9.34,0,0,0,1.24-2.41,12.76,12.76,0,0,1,.48-1.52,8.15,8.15,0,0,0,.44-1.71,3.29,3.29,0,0,0-.16-1.62,2.44,2.44,0,0,0-1.16-1.25,4.5,4.5,0,0,0-1.12-.29,8,8,0,0,0-1-.06h-.16" style="fill:#ff76bb"/><g style="clip-path:url(#clip-path-6)"><rect x="160.84" y="8.59" width="26.76" height="27.21" transform="translate(-1.05 10.92) rotate(-3.58)" style="fill:#ff76bb"/></g><path d="M194.47,20.58l-1.36-.06a5.34,5.34,0,0,1,.28-1.61c.18-.59.41-1.23.68-1.91s.79-1.41,1.24-2.13a13.57,13.57,0,0,1,1.56-2,17.55,17.55,0,0,1,2.56-2.43,13.29,13.29,0,0,1,3-1.78,8.38,8.38,0,0,1,2.88-.84,3,3,0,0,1,2,.43A1.79,1.79,0,0,1,208,9.72a5.49,5.49,0,0,1-.68,2.51,18.19,18.19,0,0,1-3.12,4.12,22,22,0,0,1-2.56,2,14.49,14.49,0,0,1-2.8,1.47,6.93,6.93,0,0,1-1.64.51c-.51.08-1,.15-1.44.2a10.4,10.4,0,0,1-1.11.06h-.21M209.6,5a8.85,8.85,0,0,0-1.24.13l-1.4.23a36.07,36.07,0,0,0-4,1.42,35,35,0,0,0-4.12,2.08,30.82,30.82,0,0,0-3,2,28.8,28.8,0,0,0-2.92,2.56q-1,1-2,2.37a14.55,14.55,0,0,0-1.76,2.89,10.83,10.83,0,0,0-.92,2.72,10.44,10.44,0,0,0-.12,3.06,6,6,0,0,0,.28,1c.13.38.29.78.48,1.2a8.89,8.89,0,0,0,.68,1.25,5.2,5.2,0,0,0,1,1.15,8.45,8.45,0,0,0,2.16,1.12,8.26,8.26,0,0,0,3.12.4,12.82,12.82,0,0,0,1.84-.1,17.81,17.81,0,0,0,2-.37,18.67,18.67,0,0,0,2-.62c.67-.24,1.35-.53,2-.86a20.1,20.1,0,0,0,2.84-1.83,12.61,12.61,0,0,0,2.2-2.13,6.17,6.17,0,0,0,.64-1,.63.63,0,0,0,.08-.49.38.38,0,0,0-.28,0,1.29,1.29,0,0,0-.4.15,3.64,3.64,0,0,0-.84.7q-.8.53-1.56,1.14t-1.6,1.14a10.79,10.79,0,0,1-1.88,1,6.58,6.58,0,0,1-2.24.45,13.26,13.26,0,0,1-1.4.15,5.27,5.27,0,0,1-1.56-.14,5.72,5.72,0,0,1-1.6-.65,4.87,4.87,0,0,1-1.44-1.32l-.52-.6a2.85,2.85,0,0,1-.48-.76,8.27,8.27,0,0,1-.36-1,3.57,3.57,0,0,1-.08-1.35l2.4-.24q1.28-.13,2.64-.36a19.07,19.07,0,0,0,3.52-.94,13.1,13.1,0,0,0,3.28-1.79q1-.65,2.08-1.35A14.8,14.8,0,0,0,211,13.83a9.33,9.33,0,0,0,1.24-2.41,12.59,12.59,0,0,1,.48-1.52,8.08,8.08,0,0,0,.44-1.71A3.26,3.26,0,0,0,213,6.58a2.43,2.43,0,0,0-1.16-1.25,4.46,4.46,0,0,0-1.12-.3,8.19,8.19,0,0,0-1-.06h-.16" style="fill:#ff76bb"/><g style="clip-path:url(#clip-path-7)"><rect x="187.26" y="4.22" width="26.76" height="27.21" transform="translate(-0.72 12.55) rotate(-3.58)" style="fill:#ff76bb"/></g></g></svg>